<svg enable-background="new 0 0 40 20" viewBox="0 0 40 20" xmlns="http://www.w3.org/2000/svg" xmlns:xlink="http://www.w3.org/1999/xlink"><linearGradient id="a" gradientTransform="matrix(1 0 0 -1 -2238.55 -2045.77)" gradientUnits="userSpaceOnUse" x1="2247.095" x2="2248.9707" y1="-2052.8606" y2="-2059.8022"><stop offset="0" stop-color="#c52127"/><stop offset="1" stop-color="#ed2024"/></linearGradient><path d="m14.18 7.05c.06-.07.06-.18 0-.23-.02-.03-.06-.05-.1-.05h-.01-.01c-.66-.16-1.03-.44-1.15-.87-.12-.44.04-.91.17-1.23.22-.54.55-1.08.97-1.56.06-.07.05-.18-.02-.24-.03-.03-.07-.04-.11-.04s-.08.02-.11.05l-3.58 3.61-.03-.02c-.04-.02-.08-.04-.12-.05-.16-.06-.34-.09-.52-.09-.16 0-.32.02-.47.07-.32.1-.61.29-.81.56-.4.5-.37 1.25-.34 1.92.01.16.01.3.01.45v2.87h-.05c-.57-.05-1.12-.25-1.59-.59-.08-.06-.17-.13-.25-.2-.35-.31-.63-.69-.81-1.12-.04-.1-.08-.2-.11-.3-.12-.39-.16-.78-.13-1.17.02-.22.06-.43.12-.64.03-.1.06-.2.1-.3.08-.21.21-.47.4-.69-.04.05-.09.1-.13.15.16-.2.33-.39.53-.56.03-.02.05-.04.08-.06.26-.2.57-.36.9-.4.19-.02.37.01.56.04.12.02.23-.09.32-.15.21-.13.43-.25.65-.34.22-.1.46-.13.67-.25.07-.04.09-.12.05-.19l-.43-.67c-.04-.07-.13-.1-.19-.06-.04.03-.08.05-.12.06h-.01l-.03.02c-.03.01-.05.02-.08.03-.07.01-.13.03-.2.04-.4.06-.84-.06-1.2-.26-.06-.03-.13-.07-.19-.1s-.1-.07-.17-.08c-.02 0-.03 0-.05 0l-.29-.03-.95-.08c-.21-.01-.42-.03-.64-.05-.07 0-.13.06-.14.13-.01.08.03.13.1.16l1.54.65c-.16.09-.35.2-.51.3-.07.04-.09.14-.05.21 0 .01.01.01.01.02.05.06.14.07.2.03.24-.17.49-.3.74-.41.07-.03.12-.1.1-.19 0-.03-.03-.07-.06-.1l-.04-.02c-.34-.14-.68-.28-1.02-.42l.82.06.2.02-.02-.02.02.02h.05c-.02 0-.03 0-.05 0 .45.29.99.51 1.54.45.17-.01.36-.05.52-.12l.27.42c-.09.03-.18.05-.27.08-.19.06-.38.15-.55.24-.18.09-.36.19-.52.31.02 0 .04.01.07.02-.03-.01-.05-.02-.07-.02-.01.01-.03.02-.04.03h.01-.01c.01-.01.03-.02.04-.03-.6-.13-1.15.06-1.62.41-.3.22-.57.51-.78.81-.03.04-.06.08-.09.13-.03.04-.05.09-.07.13-.03.07-.07.14-.1.21l-.52-.19c.18-.45.44-.87.77-1.23.03-.04.07-.07.1-.11.04-.04.07-.07.11-.1.07-.07.07-.17.01-.24l-.1-.1-.33-.33-2.57-2.59c-.02-.03-.06-.05-.11-.05-.04 0-.08.02-.11.04-.06.07-.07.18-.01.25.41.48.75 1.02.97 1.56.13.32.29.79.17 1.23-.11.42-.49.71-1.15.86h-.01c-.04 0-.07.02-.1.05-.06.06-.06.17 0 .23.29.33.81 1 1.07 1.82.25.78.2 1.46-.16 2.01-.03.06-.03.13.01.19.02.04.06.06.11.06h.01.01.01c1.04.22 1.51 1.22 1.51 2.12v.01.01c.01.07.06.13.13.15.02 0 .03.01.05.01.04 0 .08-.02.1-.05.24-.23.59-.35 1.04-.35h.1c.41.02.83.12 1.1.21l.04.01v.46c0 .08.06.14.14.14s.14-.06.14-.14v-.59c0-.01 0-.01 0-.02s0-.02 0-.03c-.01-.06-.05-.1-.11-.12-.27-.09-.7-.21-1.15-.24-.1 0-.18 0-.26 0-.14 0-.29.01-.43.03l-.13.02.27-.33.05-.06c.05-.06.02-.14-.03-.18-.04-.04-.09-.07-.13-.11-.33-.28-.61-.62-.83-.99-.04-.07-.12-.1-.19-.07-.08.03-.12.12-.09.2 0 .01.01.02.01.03.24.4.54.76.9 1.06l-.41.51-.02-.11c-.06-.36-.2-.71-.41-1.01-.2-.3-.47-.55-.8-.71l-.1-.05.32-.13.24-.1.29-.11c-.01-.01-.01-.03-.02-.04-.03-.07-.06-.14-.08-.22-.12-.33-.19-.69-.22-1.05-.02-.29 0-.58.04-.86.01-.08-.03-.15-.11-.17-.07-.03-.16.01-.19.1 0 .01 0 .02-.01.02-.11.68-.05 1.39.17 2.04l-.6.24.03-.1c.16-.49.16-1.03-.01-1.63-.14-.49-.39-1-.73-1.5l-.07-.13 1.03.37.12.04.2.08.16.06.14.04.52.19-.01.04c-.01.04-.07.29-.09.42-.08.51-.05 1.03.1 1.52l.15.4c.2.44.49.84.84 1.17l.33.27c.52.37 1.12.59 1.76.63h.05v2.42c0 .02 0 .03-.01.04l-.51.75c-.02.02-.02.05-.01.08l.62 1.32c.02.04.06.05.1.04.02-.01.03-.02.04-.04l.62-1.32c.01-.02.01-.05-.01-.08l-.51-.76c-.01-.01-.01-.03-.01-.04v-2.42h.05c.63-.05 1.24-.27 1.76-.64l.04-.03.72.9-.13-.02c-.14-.02-.29-.04-.43-.03-.08 0-.16 0-.24.01-.45.03-.87.15-1.15.24-.06.02-.1.06-.11.12v.03.6c0 .08.06.14.14.14s.14-.06.14-.14v-.46l.04-.01c.27-.09.69-.19 1.1-.21h.1c.45 0 .8.12 1.04.35.02.03.06.05.1.05.02 0 .03 0 .05-.01.07-.02.12-.08.13-.15v-.01-.01c0-.89.46-1.89 1.51-2.12h.01.01.01c.05 0 .09-.02.11-.06.04-.05.05-.13.01-.19-.36-.55-.41-1.23-.16-2.01.25-.8.77-1.48 1.06-1.8zm-11.39-.16c.38-.17.64-.42.77-.74.16-.37.15-.83-.03-1.37-.02-.07-.05-.15-.08-.22l.1-.07 1.51 1.52c-.38.38-.68.83-.89 1.32-.02.05-.04.09-.06.14l-.92-.34h-.01l-.5-.18zm9.89-2.4.1.07c-.03.08-.06.15-.08.23-.18.54-.19 1-.03 1.37.13.32.39.56.77.74l.11.05-2.25.82-.02-.04c-.09-.22-.26-.55-.51-.83-.06-.07-.13-.13-.2-.19l-.04-.04zm-4.62 12.01-.41-.7c-.01-.01-.01-.02 0-.03l.41-.51c.01-.01.03-.01.04 0s.01.01.01.02v1.22c0 .02-.01.03-.03.03-.01-.01-.02-.02-.02-.03zm2.11-5.1c-.08.07-.16.14-.25.2-.47.34-1.02.54-1.59.59h-.05v-.05c0-.12 0-.33-.01-.59v-.01c-.01-1.15-.04-3.28.01-3.76.04-.34.22-.65.49-.85.23-.18.51-.27.79-.27.07 0 .13.01.2.02.08.01.16.03.24.06.1.04.2.09.29.16.37.26.59.68.71.98.04.1.07.2.1.3.06.21.1.43.12.65.04.5-.04.99-.23 1.45-.2.42-.47.81-.82 1.12zm2.36-.41c-.32.17-.59.41-.8.71-.2.31-.34.65-.41 1.01l-.02.11-.93-1.17.03-.03c.36-.33.65-.73.85-1.17l.02-.04 1.35.54zm.21-.45.03.1-1.39-.55.01-.04c.15-.49.19-1.01.1-1.52-.02-.14-.05-.27-.09-.41v-.05l2.17-.79-.09.13c-.34.49-.59 1.01-.73 1.5-.16.6-.17 1.15-.01 1.63z" fill="url(#a)"/><g fill="#08152c"><path d="m19.29 7.04h2.21c1.78 0 3.01 1.22 3.01 2.81v.02c0 1.59-1.23 2.83-3.01 2.83h-2.21zm1.25 1.13v3.41h.96c1.02 0 1.71-.69 1.71-1.69v-.01c0-1-.69-1.71-1.71-1.71z"/><path d="m26.02 7.04h4.27v1.11h-3.03v1.15h2.67v1.11h-2.67v1.19h3.07v1.11h-4.31z"/><path d="m31.85 7.04h1.15l2.65 3.49v-3.49h1.23v5.66h-1.06l-2.74-3.6v3.6h-1.23z"/></g></svg>